<svg xmlns="http://www.w3.org/2000/svg" xmlns:xlink="http://www.w3.org/1999/xlink" width="500" zoomAndPan="magnify" viewBox="0 0 375 374.999991" height="500" preserveAspectRatio="xMidYMid meet" version="1.0"><defs><clipPath id="46ed7b757e"><path d="M 92 53.644531 L 234 53.644531 L 234 132 L 92 132 Z M 92 53.644531 " clip-rule="nonzero"/></clipPath><clipPath id="185401cd59"><path d="M 53.644531 98 L 163 98 L 163 224 L 53.644531 224 Z M 53.644531 98 " clip-rule="nonzero"/></clipPath><clipPath id="1b39beba31"><path d="M 212 151 L 321.394531 151 L 321.394531 277 L 212 277 Z M 212 151 " clip-rule="nonzero"/></clipPath><clipPath id="06a1423674"><path d="M 140 243 L 283 243 L 283 321.394531 L 140 321.394531 Z M 140 243 " clip-rule="nonzero"/></clipPath></defs><rect x="-37.5" width="450" fill="#ffffff" y="-37.499999" height="449.999989" fill-opacity="1"/><rect x="-37.5" width="450" fill="#ececec" y="-37.499999" height="449.999989" fill-opacity="1"/><g clip-path="url(#46ed7b757e)"><path fill="#3d6fb0" d="M 233.273438 131.4375 L 212.230469 55.945312 C 170.308594 48.128906 125.335938 60.390625 92.890625 92.835938 C 92.726562 92.996094 92.566406 93.210938 92.351562 93.371094 Z M 233.273438 131.4375 " fill-opacity="1" fill-rule="nonzero"/></g><g clip-path="url(#185401cd59)"><path fill="#3d6fb0" d="M 162.652344 119.015625 L 87.375 98.671875 C 56.375 133.578125 46.738281 180.695312 58.460938 223.207031 Z M 162.652344 119.015625 " fill-opacity="1" fill-rule="nonzero"/></g><path fill="#3d6fb0" d="M 314.386719 144.824219 C 308.015625 125.816406 297.253906 107.988281 282.15625 92.835938 C 264.164062 74.84375 242.320312 63.066406 219.296875 57.445312 L 259.078125 200.078125 Z M 314.386719 144.824219 " fill-opacity="1" fill-rule="nonzero"/><g clip-path="url(#1b39beba31)"><path fill="#3d6fb0" d="M 212.015625 256.242188 L 287.082031 276.90625 C 318.507812 242 328.308594 194.507812 316.472656 151.785156 Z M 212.015625 256.242188 " fill-opacity="1" fill-rule="nonzero"/></g><g clip-path="url(#06a1423674)"><path fill="#3d6fb0" d="M 140.324219 243.175781 L 160.027344 318.507812 C 202.699219 327.398438 248.90625 315.296875 282.046875 282.207031 Z M 140.324219 243.175781 " fill-opacity="1" fill-rule="nonzero"/></g><path fill="#3d6fb0" d="M 60.605469 230.167969 C 66.976562 249.175781 77.738281 267.003906 92.835938 282.15625 C 110.128906 299.449219 130.957031 311.011719 152.960938 316.847656 L 115.804688 174.964844 Z M 60.605469 230.167969 " fill-opacity="1" fill-rule="nonzero"/></svg>